<svg xmlns="http://www.w3.org/2000/svg" xmlns:xlink="http://www.w3.org/1999/xlink" width="1020" zoomAndPan="magnify" viewBox="0 0 765 165.000002" height="220" preserveAspectRatio="xMidYMid meet" version="1.0"><defs><g/><clipPath id="0024e4c6ec"><path d="M 78 72 L 98 72 L 98 92 L 78 92 Z M 78 72 " clip-rule="nonzero"/></clipPath><clipPath id="54106cbc45"><path d="M 97.21875 81.835938 C 97.21875 82.464844 97.160156 83.089844 97.035156 83.703125 C 96.914062 84.320312 96.730469 84.917969 96.492188 85.5 C 96.25 86.082031 95.957031 86.632812 95.605469 87.15625 C 95.257812 87.675781 94.859375 88.160156 94.417969 88.605469 C 93.972656 89.050781 93.488281 89.445312 92.964844 89.796875 C 92.445312 90.144531 91.890625 90.441406 91.3125 90.679688 C 90.730469 90.921875 90.132812 91.101562 89.515625 91.226562 C 88.898438 91.347656 88.277344 91.410156 87.648438 91.410156 C 87.019531 91.410156 86.398438 91.347656 85.78125 91.226562 C 85.164062 91.101562 84.566406 90.921875 83.984375 90.679688 C 83.40625 90.441406 82.851562 90.144531 82.332031 89.796875 C 81.808594 89.445312 81.324219 89.050781 80.878906 88.605469 C 80.4375 88.160156 80.039062 87.675781 79.691406 87.15625 C 79.339844 86.632812 79.046875 86.082031 78.804688 85.5 C 78.566406 84.917969 78.382812 84.320312 78.261719 83.703125 C 78.136719 83.089844 78.078125 82.464844 78.078125 81.835938 C 78.078125 81.207031 78.136719 80.585938 78.261719 79.96875 C 78.382812 79.351562 78.566406 78.753906 78.804688 78.175781 C 79.046875 77.59375 79.339844 77.042969 79.691406 76.519531 C 80.039062 75.996094 80.4375 75.511719 80.878906 75.070312 C 81.324219 74.625 81.808594 74.226562 82.332031 73.878906 C 82.851562 73.53125 83.40625 73.234375 83.984375 72.992188 C 84.566406 72.753906 85.164062 72.570312 85.78125 72.449219 C 86.398438 72.328125 87.019531 72.265625 87.648438 72.265625 C 88.277344 72.265625 88.898438 72.328125 89.515625 72.449219 C 90.132812 72.570312 90.730469 72.753906 91.3125 72.992188 C 91.890625 73.234375 92.445312 73.53125 92.964844 73.878906 C 93.488281 74.226562 93.972656 74.625 94.417969 75.070312 C 94.859375 75.511719 95.257812 75.996094 95.605469 76.519531 C 95.957031 77.042969 96.25 77.59375 96.492188 78.175781 C 96.730469 78.753906 96.914062 79.351562 97.035156 79.96875 C 97.160156 80.585938 97.21875 81.207031 97.21875 81.835938 Z M 97.21875 81.835938 " clip-rule="nonzero"/></clipPath><clipPath id="9034dbcbde"><path d="M 76 70 L 99.71875 70 L 99.71875 94.28125 L 76 94.28125 Z M 76 70 " clip-rule="nonzero"/></clipPath><clipPath id="6a5c8bc0cb"><path d="M 89.128906 93.871094 C 85.8125 93.921875 83.925781 94.242188 82.550781 93.835938 C 81.1875 93.425781 79.78125 92.496094 78.8125 91.503906 C 77.894531 90.5625 77.265625 89.3125 76.820312 88.085938 C 76.375 86.84375 76.207031 85.421875 76.15625 84.089844 C 76.105469 82.78125 76.226562 81.4375 76.5 80.15625 C 76.777344 78.875 77.191406 77.667969 77.792969 76.417969 C 78.476562 75.019531 79.367188 73.292969 80.507812 72.222656 C 81.578125 71.214844 82.996094 70.25 84.347656 70.082031 C 85.703125 69.917969 87.402344 70.585938 88.640625 71.242188 C 89.792969 71.851562 90.613281 72.882812 91.582031 73.769531 C 92.574219 74.679688 93.828125 75.5 94.503906 76.628906 C 95.171875 77.742188 95.566406 79.1875 95.613281 80.492188 C 95.65625 81.816406 95.335938 84.390625 94.75 84.523438 C 94.128906 84.671875 92.859375 80.921875 91.875 80.871094 C 90.949219 80.820312 89.90625 83.851562 89.039062 83.785156 C 88.179688 83.730469 86.503906 80.804688 86.695312 80.582031 C 86.886719 80.359375 88.933594 82.371094 90.140625 82.402344 C 91.460938 82.4375 94.097656 80.167969 94.332031 80.457031 C 94.554688 80.722656 93.132812 83.25 91.929688 83.730469 C 90.378906 84.347656 87.199219 82.386719 85.25 82.492188 C 83.703125 82.574219 81.21875 83.894531 81.144531 83.722656 C 81.066406 83.558594 83.347656 81.824219 84.589844 81.558594 C 85.816406 81.296875 88.542969 81.964844 88.535156 82.105469 C 88.53125 82.257812 85.078125 82.972656 83.835938 82.417969 C 82.652344 81.886719 81.582031 80.183594 81.175781 79.015625 C 80.839844 78.046875 81.09375 76.910156 81.164062 76.054688 C 81.214844 75.398438 81.265625 74.871094 81.449219 74.324219 C 81.632812 73.777344 81.921875 73.226562 82.269531 72.769531 C 82.621094 72.3125 83.066406 71.882812 83.542969 71.558594 C 84.023438 71.234375 84.582031 70.980469 85.144531 70.828125 C 85.695312 70.675781 86.308594 70.605469 86.886719 70.636719 C 87.460938 70.667969 88.066406 70.800781 88.601562 71.011719 C 89.136719 71.230469 89.671875 71.539062 90.109375 71.917969 C 90.550781 72.292969 90.945312 72.761719 91.242188 73.261719 C 91.542969 73.757812 91.777344 74.324219 91.898438 74.890625 C 92.019531 75.449219 92.050781 76.066406 91.988281 76.640625 C 91.925781 77.214844 91.765625 77.8125 91.523438 78.335938 C 91.28125 78.855469 90.929688 79.367188 90.535156 79.785156 C 90.136719 80.207031 89.644531 80.578125 89.136719 80.851562 C 88.625 81.117188 88.039062 81.316406 87.472656 81.410156 C 86.902344 81.507812 86.289062 81.507812 85.714844 81.410156 C 85.144531 81.316406 84.558594 81.125 84.046875 80.851562 C 83.539062 80.582031 83.046875 80.207031 82.652344 79.785156 C 82.257812 79.367188 81.90625 78.855469 81.667969 78.335938 C 81.425781 77.8125 81.257812 77.214844 81.195312 76.640625 C 81.132812 76.066406 81.167969 75.457031 81.289062 74.890625 C 81.410156 74.324219 81.640625 73.75 81.941406 73.253906 C 82.238281 72.757812 82.640625 72.292969 83.078125 71.917969 C 83.519531 71.539062 84.046875 71.222656 84.582031 71.011719 C 85.117188 70.796875 85.722656 70.667969 86.300781 70.636719 C 86.882812 70.605469 87.492188 70.675781 88.046875 70.828125 C 88.601562 70.980469 89.160156 71.234375 89.636719 71.558594 C 90.117188 71.882812 90.566406 72.3125 90.917969 72.769531 C 91.269531 73.226562 91.554688 73.777344 91.738281 74.324219 C 91.925781 74.871094 92.019531 76.054688 92.019531 76.054688 C 92.019531 76.054688 92.078125 78.460938 92.21875 79.683594 C 92.363281 80.957031 92.875 82.246094 92.910156 83.5625 C 92.957031 84.917969 92.910156 86.441406 92.425781 87.714844 C 91.929688 89.007812 91.019531 90.511719 89.929688 91.253906 C 88.894531 91.960938 86.195312 92.390625 86.105469 92.183594 C 86.015625 91.980469 89.390625 90.238281 89.3125 90.082031 C 89.230469 89.910156 86.207031 92.007812 84.765625 91.613281 C 82.925781 91.109375 80.105469 87.5625 79.640625 85.675781 C 79.308594 84.332031 80.035156 83.023438 80.53125 81.800781 C 81.035156 80.558594 81.890625 79.410156 82.660156 78.285156 C 83.4375 77.152344 84.214844 76.023438 85.175781 75.011719 C 86.175781 73.960938 87.269531 72.554688 88.574219 72.109375 C 89.863281 71.667969 91.703125 71.710938 92.945312 72.316406 C 94.269531 72.960938 95.179688 74.890625 96.191406 76.074219 C 97.089844 77.132812 98.171875 77.890625 98.71875 79.082031 C 99.316406 80.371094 99.519531 82.175781 99.46875 83.640625 C 99.425781 85.015625 99.164062 86.484375 98.535156 87.613281 C 97.921875 88.707031 96.929688 89.753906 95.800781 90.339844 C 94.585938 90.96875 92.824219 91.179688 91.394531 91.121094 C 90.035156 91.070312 88.5625 90.878906 87.429688 90.097656 C 86.109375 89.1875 84.097656 86.863281 84.21875 85.582031 C 84.328125 84.492188 87.148438 83.761719 87.140625 82.800781 C 87.136719 81.753906 83.472656 80.246094 83.652344 79.5625 C 83.820312 78.945312 87.136719 78.277344 87.433594 78.683594 C 87.734375 79.09375 85.574219 80.804688 85.480469 81.976562 C 85.386719 83.199219 86.230469 85.332031 87.027344 85.886719 C 87.589844 86.277344 88.570312 85.898438 89.128906 85.9375 C 89.511719 85.964844 89.773438 85.976562 90.078125 86.054688 C 90.382812 86.128906 90.6875 86.25 90.96875 86.398438 C 91.25 86.542969 91.523438 86.726562 91.757812 86.9375 C 91.996094 87.148438 92.210938 87.390625 92.390625 87.652344 C 92.566406 87.914062 92.71875 88.207031 92.835938 88.5 C 92.949219 88.796875 93.027344 89.117188 93.0625 89.429688 C 93.101562 89.738281 93.101562 90.070312 93.0625 90.382812 C 93.027344 90.695312 92.949219 91.011719 92.835938 91.3125 C 92.71875 91.605469 92.566406 91.898438 92.390625 92.160156 C 92.210938 92.421875 91.988281 92.664062 91.753906 92.871094 C 91.515625 93.082031 91.25 93.269531 90.96875 93.414062 C 90.6875 93.558594 90.382812 93.679688 90.078125 93.757812 C 89.773438 93.835938 89.128906 93.871094 89.128906 93.871094 " clip-rule="nonzero"/></clipPath></defs><path stroke-linecap="round" transform="matrix(0.269944, 0, 0, 0.269944, 19.811582, 14.000381)" fill="none" stroke-linejoin="round" d="M 44.254553 44.26421 C 71.922375 16.596387 187.050616 86.85124 301.397444 201.198068 C 415.744272 315.544896 486.013596 430.673137 458.345773 458.34096 " stroke="#000000" stroke-width="20" stroke-opacity="1" stroke-miterlimit="10"/><path stroke-linecap="round" transform="matrix(0.269944, 0, 0, 0.269944, 19.811582, 14.000381)" fill="none" stroke-linejoin="round" d="M 44.254553 458.34096 C 16.58673 430.673137 86.856054 315.544896 201.202881 201.198068 C 315.549709 86.85124 430.67795 16.596387 458.345773 44.26421 " stroke="#000000" stroke-width="20" stroke-opacity="1" stroke-miterlimit="10"/><path stroke-linecap="round" transform="matrix(0.190879, 0.190879, -0.190879, 0.190879, 87.648393, -14.098545)" fill="none" stroke-linejoin="round" d="M 80.673684 80.673451 L 421.919981 80.673451 L 421.919981 421.919748 L 80.673684 421.919748 Z M 80.673684 80.673451 " stroke="#000000" stroke-width="20" stroke-opacity="1" stroke-miterlimit="10"/><g clip-path="url(#0024e4c6ec)"><g clip-path="url(#54106cbc45)"><path fill="#000000" d="M 78.078125 72.265625 L 78.078125 91.410156 L 97.21875 91.410156 L 97.21875 72.265625 Z M 78.078125 72.265625 " fill-opacity="1" fill-rule="nonzero"/></g></g><path stroke-linecap="round" transform="matrix(0.269944, 0, 0, 0.269944, 19.811582, 14.000381)" fill="none" stroke-linejoin="round" d="M 458.345773 44.26421 C 486.013596 71.932032 415.744272 187.060274 301.397444 301.392631 C 187.050616 415.739459 71.922375 486.008782 44.254553 458.34096 " stroke="#000000" stroke-width="20" stroke-opacity="1" stroke-miterlimit="10"/><path stroke-linecap="round" transform="matrix(0.269944, 0, 0, 0.269944, 19.811582, 14.000381)" fill="none" stroke-linejoin="round" d="M 458.345773 458.34096 C 430.67795 486.008782 315.549709 415.739459 201.202881 301.392631 C 86.856054 187.060274 16.58673 71.932032 44.254553 44.26421 " stroke="#000000" stroke-width="20" stroke-opacity="1" stroke-miterlimit="10"/><g fill="#000000" fill-opacity="1"><g transform="translate(168.568507, 115.685918)"><g><path d="M 30.40625 0 L 5.984375 0 L 5.984375 -68.890625 L 30.609375 -68.890625 C 37.546875 -68.890625 43.519531 -67.515625 48.53125 -64.765625 C 53.539062 -62.023438 57.390625 -58.085938 60.078125 -52.953125 C 62.773438 -47.816406 64.125 -41.671875 64.125 -34.515625 C 64.125 -27.335938 62.769531 -21.171875 60.0625 -16.015625 C 57.363281 -10.859375 53.492188 -6.898438 48.453125 -4.140625 C 43.421875 -1.378906 37.40625 0 30.40625 0 Z M 20.5625 -12.484375 L 29.8125 -12.484375 C 36.289062 -12.484375 41.207031 -14.234375 44.5625 -17.734375 C 47.914062 -21.234375 49.59375 -26.828125 49.59375 -34.515625 C 49.59375 -42.160156 47.914062 -47.722656 44.5625 -51.203125 C 41.207031 -54.679688 36.300781 -56.421875 29.84375 -56.421875 L 20.5625 -56.421875 Z M 20.5625 -12.484375 "/></g></g></g><g fill="#000000" fill-opacity="1"><g transform="translate(237.465441, 115.685918)"><g><path d="M 17.859375 0 L 2.25 0 L 26.03125 -68.890625 L 44.8125 -68.890625 L 68.5625 0 L 52.953125 0 L 47.84375 -15.703125 L 22.984375 -15.703125 Z M 26.671875 -27.078125 L 44.171875 -27.078125 L 35.6875 -53.15625 L 35.15625 -53.15625 Z M 26.671875 -27.078125 "/></g></g></g><g fill="#000000" fill-opacity="1"><g transform="translate(308.31355, 115.685918)"><g><path d="M 5.984375 0 L 5.984375 -68.890625 L 20.5625 -68.890625 L 20.5625 -12.015625 L 50.09375 -12.015625 L 50.09375 0 Z M 5.984375 0 "/></g></g></g><g fill="#000000" fill-opacity="1"><g transform="translate(362.072, 115.685918)"><g><path d="M 5.984375 0 L 5.984375 -68.890625 L 20.5625 -68.890625 L 20.5625 -12.015625 L 50.09375 -12.015625 L 50.09375 0 Z M 5.984375 0 "/></g></g></g><g fill="#000000" fill-opacity="1"><g transform="translate(415.830449, 115.685918)"><g><path d="M 37.90625 -33.984375 L 37.90625 -22.609375 L 6.5 -22.609375 L 6.5 -33.984375 Z M 37.90625 -33.984375 "/></g></g></g><g fill="#000000" fill-opacity="1"><g transform="translate(460.236697, 115.685918)"><g><path d="M 5.984375 0 L 5.984375 -68.890625 L 52.40625 -68.890625 L 52.40625 -56.890625 L 20.5625 -56.890625 L 20.5625 -40.46875 L 50.03125 -40.46875 L 50.03125 -28.453125 L 20.5625 -28.453125 L 20.5625 -12.015625 L 52.546875 -12.015625 L 52.546875 0 Z M 5.984375 0 "/></g></g></g><g fill="#000000" fill-opacity="1"><g transform="translate(518.267582, 115.685918)"><g><path d="M 48.71875 -36.9375 L 35.59375 -36.125 C 35.226562 -37.789062 34.316406 -39.21875 32.859375 -40.40625 C 31.410156 -41.59375 29.441406 -42.1875 26.953125 -42.1875 C 24.722656 -42.1875 22.835938 -41.71875 21.296875 -40.78125 C 19.765625 -39.851562 19.015625 -38.617188 19.046875 -37.078125 C 19.015625 -35.835938 19.5 -34.789062 20.5 -33.9375 C 21.5 -33.09375 23.195312 -32.410156 25.59375 -31.890625 L 34.953125 -30.015625 C 44.890625 -27.972656 49.867188 -23.304688 49.890625 -16.015625 C 49.890625 -12.628906 48.894531 -9.65625 46.90625 -7.09375 C 44.925781 -4.539062 42.207031 -2.550781 38.75 -1.125 C 35.300781 0.300781 31.34375 1.015625 26.875 1.015625 C 20.039062 1.015625 14.59375 -0.410156 10.53125 -3.265625 C 6.46875 -6.128906 4.101562 -10.03125 3.4375 -14.96875 L 17.53125 -15.703125 C 17.976562 -13.597656 19.015625 -12.003906 20.640625 -10.921875 C 22.265625 -9.847656 24.351562 -9.3125 26.90625 -9.3125 C 29.425781 -9.3125 31.453125 -9.804688 32.984375 -10.796875 C 34.523438 -11.785156 35.304688 -13.039062 35.328125 -14.5625 C 35.253906 -17.125 33.046875 -18.84375 28.703125 -19.71875 L 19.75 -21.5 C 9.75 -23.488281 4.769531 -28.410156 4.8125 -36.265625 C 4.789062 -41.242188 6.78125 -45.164062 10.78125 -48.03125 C 14.78125 -50.90625 20.09375 -52.34375 26.71875 -52.34375 C 33.238281 -52.34375 38.375 -50.960938 42.125 -48.203125 C 45.882812 -45.453125 48.082031 -41.695312 48.71875 -36.9375 Z M 48.71875 -36.9375 "/></g></g></g><g fill="#000000" fill-opacity="1"><g transform="translate(571.487768, 115.685918)"><g><path d="M 54.203125 19.375 L 54.203125 -51.671875 L 40.078125 -51.671875 L 40.078125 -43 L 39.4375 -43 C 38.78125 -44.40625 37.859375 -45.828125 36.671875 -47.265625 C 35.484375 -48.703125 33.910156 -49.90625 31.953125 -50.875 C 30.003906 -51.851562 27.597656 -52.34375 24.734375 -52.34375 C 20.941406 -52.34375 17.460938 -51.359375 14.296875 -49.390625 C 11.140625 -47.429688 8.601562 -44.484375 6.6875 -40.546875 C 4.769531 -36.617188 3.8125 -31.691406 3.8125 -25.765625 C 3.8125 -20.003906 4.738281 -15.144531 6.59375 -11.1875 C 8.457031 -7.226562 10.96875 -4.234375 14.125 -2.203125 C 17.289062 -0.171875 20.835938 0.84375 24.765625 0.84375 C 27.546875 0.84375 29.90625 0.382812 31.84375 -0.53125 C 33.789062 -1.457031 35.375 -2.617188 36.59375 -4.015625 C 37.8125 -5.421875 38.757812 -6.84375 39.4375 -8.28125 L 39.875 -8.28125 L 39.875 19.375 Z M 40.171875 -25.84375 C 40.171875 -21.238281 39.222656 -17.539062 37.328125 -14.75 C 35.429688 -11.957031 32.757812 -10.5625 29.3125 -10.5625 C 25.789062 -10.5625 23.097656 -11.976562 21.234375 -14.8125 C 19.367188 -17.65625 18.4375 -21.332031 18.4375 -25.84375 C 18.4375 -30.320312 19.363281 -33.957031 21.21875 -36.75 C 23.070312 -39.539062 25.769531 -40.9375 29.3125 -40.9375 C 32.78125 -40.9375 35.457031 -39.570312 37.34375 -36.84375 C 39.226562 -34.125 40.171875 -30.457031 40.171875 -25.84375 Z M 40.171875 -25.84375 "/></g></g></g><g fill="#000000" fill-opacity="1"><g transform="translate(631.402533, 115.685918)"><g><path d="M 38.859375 -22 L 38.859375 -51.671875 L 53.1875 -51.671875 L 53.1875 0 L 39.421875 0 L 39.421875 -9.390625 L 38.890625 -9.390625 C 37.722656 -6.359375 35.785156 -3.921875 33.078125 -2.078125 C 30.378906 -0.242188 27.09375 0.671875 23.21875 0.671875 C 18.007812 0.671875 13.796875 -1.054688 10.578125 -4.515625 C 7.359375 -7.984375 5.738281 -12.734375 5.71875 -18.765625 L 5.71875 -51.671875 L 20.046875 -51.671875 L 20.046875 -21.328125 C 20.066406 -18.273438 20.882812 -15.863281 22.5 -14.09375 C 24.113281 -12.320312 26.28125 -11.4375 29 -11.4375 C 31.582031 -11.4375 33.875 -12.332031 35.875 -14.125 C 37.882812 -15.925781 38.878906 -18.550781 38.859375 -22 Z M 38.859375 -22 "/></g></g></g><g fill="#000000" fill-opacity="1"><g transform="translate(690.308047, 115.685918)"><g><path d="M 29.265625 1.015625 C 23.972656 1.015625 19.410156 -0.0664062 15.578125 -2.234375 C 11.742188 -4.398438 8.796875 -7.472656 6.734375 -11.453125 C 4.671875 -15.429688 3.640625 -20.144531 3.640625 -25.59375 C 3.640625 -30.914062 4.671875 -35.582031 6.734375 -39.59375 C 8.796875 -43.613281 11.703125 -46.742188 15.453125 -48.984375 C 19.210938 -51.222656 23.628906 -52.34375 28.703125 -52.34375 C 33.253906 -52.34375 37.363281 -51.378906 41.03125 -49.453125 C 44.695312 -47.523438 47.601562 -44.613281 49.75 -40.71875 C 51.90625 -36.832031 52.984375 -31.960938 52.984375 -26.109375 L 52.984375 -22.171875 L 17.796875 -22.171875 L 17.796875 -22.140625 C 17.796875 -18.273438 18.847656 -15.234375 20.953125 -13.015625 C 23.066406 -10.796875 25.914062 -9.6875 29.5 -9.6875 C 31.90625 -9.6875 33.976562 -10.191406 35.71875 -11.203125 C 37.46875 -12.210938 38.703125 -13.703125 39.421875 -15.671875 L 52.6875 -14.796875 C 51.675781 -10.003906 49.117188 -6.171875 45.015625 -3.296875 C 40.910156 -0.421875 35.660156 1.015625 29.265625 1.015625 Z M 17.796875 -31.046875 L 39.5 -31.046875 C 39.476562 -34.117188 38.488281 -36.648438 36.53125 -38.640625 C 34.582031 -40.640625 32.050781 -41.640625 28.9375 -41.640625 C 25.75 -41.640625 23.132812 -40.609375 21.09375 -38.546875 C 19.050781 -36.484375 17.953125 -33.984375 17.796875 -31.046875 Z M 17.796875 -31.046875 "/></g></g></g><g clip-path="url(#9034dbcbde)"><g clip-path="url(#6a5c8bc0cb)"><path fill="#ffffff" d="M 73.609375 67.535156 L 102.265625 67.535156 L 102.265625 96.191406 L 73.609375 96.191406 Z M 73.609375 67.535156 " fill-opacity="1" fill-rule="nonzero"/></g></g><path stroke-linecap="butt" transform="matrix(0.745611, -0.000000000000000047, 0.000000000000000047, 0.745482, 175.569713, 132.504423)" fill="none" stroke-linejoin="miter" d="M 0.000803819 2.000948 L 450.931309 2.000948 " stroke="#b876cb" stroke-width="4" stroke-opacity="1" stroke-miterlimit="4"/></svg>