<svg xmlns="http://www.w3.org/2000/svg" xmlns:xlink="http://www.w3.org/1999/xlink" width="800" zoomAndPan="magnify" viewBox="0 0 600 374.999991" height="500" preserveAspectRatio="xMidYMid meet" version="1.0"><defs><g/></defs><g fill="#db5baa" fill-opacity="1"><g transform="translate(277.25564, 350.930851)"><g><path d="M 312.90625 -34.449219 L 243.1875 -299.78125 C 241.960938 -304.703125 240.730469 -312.085938 234.988281 -318.648438 C 228.835938 -324.800781 221.042969 -326.441406 215.300781 -326.441406 L 107.855469 -326.441406 C 101.703125 -326.441406 95.964844 -324.390625 91.863281 -321.109375 C 87.761719 -318.238281 83.25 -313.316406 81.609375 -305.933594 L 7.792969 -34.859375 C 4.511719 -21.734375 10.664062 -7.792969 22.964844 -2.460938 C 26.246094 -0.820312 29.527344 -0.410156 33.628906 -0.410156 L 89.402344 -0.410156 C 104.574219 -0.410156 110.726562 -9.84375 116.878906 -25.425781 L 128.769531 -57.414062 L 191.515625 -57.414062 L 203.820312 -25.425781 C 209.972656 -9.84375 216.121094 0 231.296875 0 L 287.070312 0 C 291.582031 0 296.09375 -1.230469 299.371094 -3.28125 C 310.445312 -9.023438 315.777344 -22.144531 312.90625 -34.449219 Z M 179.625 -152.148438 L 141.484375 -152.148438 C 137.382812 -152.148438 134.101562 -155.839844 136.152344 -159.9375 L 146.816406 -187.824219 L 155.019531 -209.152344 C 156.65625 -214.480469 164.039062 -214.480469 165.679688 -209.152344 L 174.292969 -187.824219 L 184.957031 -159.9375 C 186.183594 -155.839844 183.316406 -152.148438 179.625 -152.148438 Z M 179.625 -152.148438 "/></g></g></g><g fill="#4ab0b4" fill-opacity="1"><g transform="translate(3.329216, 337.841164)"><g><path d="M 134.886719 -322.191406 C 130.261719 -322.191406 6.550781 -328.742188 6.550781 -221.601562 C 6.550781 -154.542969 55.113281 -116.003906 120.242188 -116.003906 L 143.367188 -116.003906 C 156.085938 -116.003906 166.492188 -108.296875 166.492188 -95.578125 C 166.492188 -83.246094 156.085938 -74.382812 145.292969 -74.382812 C 139.128906 -74.382812 128.722656 -76.308594 124.867188 -91.722656 C 123.710938 -94.808594 122.171875 -96.734375 116.390625 -95.578125 L 13.101562 -83.246094 C 7.324219 -82.089844 6.167969 -78.234375 9.25 -72.453125 C 25.050781 -28.519531 53.183594 13.875 149.535156 13.875 C 198.09375 13.875 259.371094 -12.71875 259.371094 -97.503906 C 259.371094 -201.945312 167.261719 -194.238281 134.886719 -194.238281 C 124.867188 -194.238281 105.597656 -196.550781 105.597656 -215.050781 C 105.597656 -230.082031 118.316406 -236.632812 126.796875 -236.632812 C 132.960938 -236.632812 143.367188 -232.007812 147.222656 -221.601562 C 148.761719 -216.976562 152.230469 -215.050781 156.085938 -215.050781 L 250.507812 -228.152344 C 254.746094 -228.539062 257.828125 -232.777344 256.671875 -238.558594 C 252.433594 -259.371094 233.933594 -322.191406 134.886719 -322.191406 Z M 134.886719 -322.191406 "/></g></g></g></svg>